<svg xmlns="http://www.w3.org/2000/svg" width="728" height="380" viewBox="0 0 728 380">
  <defs>
    <linearGradient id="g" x1="0" y1="0" x2="1" y2="1">
      <stop offset="0" stop-color="#101B33"/>
      <stop offset="1" stop-color="#2C4AA0"/>
    </linearGradient>
  </defs>
  <rect width="728" height="380" fill="url(#g)"/>
  <circle cx="615" cy="85" r="150" fill="#ffffff" opacity="0.08"/>
  <circle cx="95" cy="335" r="120" fill="#5FE0C0" opacity="0.10"/>
  <path d="M0 335 L728 255 L728 380 L0 380 Z" fill="#0a1430" opacity="0.4"/>
  <!-- speculative decode token chain -->
  <g transform="translate(230,120)">
    <rect x="0" y="0" width="32" height="44" rx="5" fill="#ffffff" opacity="0.22"/>
    <rect x="38" y="0" width="32" height="44" rx="5" fill="#ffffff" opacity="0.22"/>
    <rect x="76" y="0" width="32" height="44" rx="5" fill="#5FE0C0" opacity="0.9"/>
    <rect x="114" y="0" width="32" height="44" rx="5" fill="#5FE0C0" opacity="0.9"/>
    <rect x="152" y="0" width="32" height="44" rx="5" fill="#7C9BFF" opacity="0.7"/>
    <path d="M32 22 H38 M70 22 H76 M108 22 H114 M146 22 H152" stroke="#ffffff" stroke-opacity="0.5" stroke-width="2"/>
  </g>
  <text x="36" y="348" font-family="Arial, sans-serif" font-size="26" font-weight="700" fill="#ffffff" opacity="0.9">模型 · Models</text>
</svg>
